<?xml version="1.0" standalone="no"?>
<!DOCTYPE svg PUBLIC "-//W3C//DTD SVG 20010904//EN"
 "http://www.w3.org/TR/2001/REC-SVG-20010904/DTD/svg10.dtd">
<svg version="1.0" xmlns="http://www.w3.org/2000/svg"
 width="16.000000pt" height="16.000000pt" viewBox="0 0 16.000000 16.000000"
 preserveAspectRatio="xMidYMid meet">
<metadata>
Created by potrace 1.11, written by Peter Selinger 2001-2013
</metadata>
<g transform="translate(0.000000,16.000000) scale(0.006154,-0.006154)"
fill="#000000" stroke="none">
<path d="M1130 2588 c-25 -5 -56 -10 -70 -12 -224 -33 -485 -171 -666 -350
-210 -210 -327 -434 -378 -729 -18 -108 -14 -336 9 -442 60 -283 165 -477 364
-675 245 -243 538 -368 881 -375 400 -9 761 151 1013 448 220 259 320 543 312
882 -8 340 -136 636 -380 880 -191 191 -397 302 -670 360 -89 19 -342 27 -415
13z m295 -193 c376 -37 729 -297 883 -651 91 -210 114 -397 77 -649 -11 -75
-59 -212 -103 -295 -110 -208 -265 -366 -462 -472 -66 -35 -189 -85 -229 -93
-13 -2 -30 -6 -39 -9 -9 -3 -30 -7 -47 -10 -16 -2 -50 -8 -75 -12 -74 -11
-219 -7 -318 10 -301 52 -565 226 -737 486 -77 119 -149 301 -161 414 -3 28
-8 55 -11 59 -7 11 -5 228 2 269 3 18 7 44 9 58 6 37 32 129 49 175 133 356
426 615 792 700 127 29 224 34 370 20z"/>
<path d="M1563 1873 c-35 -43 -73 -90 -85 -104 -29 -34 -71 -85 -188 -224 -51
-60 -94 -111 -95 -113 -2 -2 1 16 7 40 5 24 12 54 14 68 3 14 13 62 24 108 47
213 -3 286 -195 285 -185 -2 -226 -49 -285 -328 -17 -82 -42 -202 -56 -265
-14 -63 -28 -125 -30 -137 -2 -12 -16 -75 -30 -140 -47 -220 -49 -250 -15
-308 28 -49 81 -68 191 -69 134 0 187 28 229 125 20 45 81 304 81 343 0 34 15
6 75 -144 63 -156 92 -211 136 -250 49 -45 56 -49 115 -66 68 -19 188 -15 246
9 78 33 164 162 135 201 -7 9 -21 17 -32 19 -35 5 -79 34 -102 65 -31 42 -145
261 -141 272 2 4 71 77 153 163 87 90 162 176 179 206 32 59 36 122 12 169
-34 67 -152 137 -246 148 -33 4 -38 0 -97 -73z"/>
</g>
</svg>
